<mxfile host="Electron" modified="2023-11-01T08:26:28.688Z" agent="Mozilla/5.0 (Windows NT 10.0; Win64; x64) AppleWebKit/537.36 (KHTML, like Gecko) draw.io/22.0.3 Chrome/114.0.5735.289 Electron/25.8.4 Safari/537.36" etag="i3kkHGvCA_6n-Cldii6X" version="22.0.3" type="device">
  <diagram id="C5RBs43oDa-KdzZeNtuy" name="Page-1">
    <mxGraphModel dx="1036" dy="606" grid="1" gridSize="10" guides="1" tooltips="1" connect="1" arrows="1" fold="1" page="1" pageScale="1" pageWidth="827" pageHeight="1169" math="0" shadow="0">
      <root>
        <mxCell id="WIyWlLk6GJQsqaUBKTNV-0" />
        <mxCell id="WIyWlLk6GJQsqaUBKTNV-1" parent="WIyWlLk6GJQsqaUBKTNV-0" />
        <mxCell id="QdLIedKiF2Z4h_buhTNF-8" value="&lt;div style=&quot;&quot;&gt;&lt;b style=&quot;background-color: initial;&quot;&gt;角色&lt;/b&gt;&lt;/div&gt;&lt;div style=&quot;&quot;&gt;&lt;span style=&quot;background-color: initial;&quot;&gt;類的角色是&quot;事物&lt;/span&gt;&lt;span style=&quot;background-color: initial;&quot;&gt;&quot;&lt;/span&gt;&lt;/div&gt;" style="rounded=0;whiteSpace=wrap;html=1;fillColor=#dae8fc;strokeColor=#6c8ebf;container=0;align=center;" vertex="1" parent="WIyWlLk6GJQsqaUBKTNV-1">
          <mxGeometry x="30" y="188" width="160" height="50" as="geometry" />
        </mxCell>
        <mxCell id="QdLIedKiF2Z4h_buhTNF-41" value="&lt;p style=&quot;margin:0px;margin-top:4px;text-align:center;&quot;&gt;&lt;b&gt;Class&lt;/b&gt;&lt;/p&gt;&lt;hr size=&quot;1&quot;&gt;&lt;p style=&quot;margin:0px;margin-left:4px;&quot;&gt;&lt;br&gt;&lt;/p&gt;&lt;hr size=&quot;1&quot;&gt;&lt;p style=&quot;margin:0px;margin-left:4px;&quot;&gt;&lt;br&gt;&lt;/p&gt;" style="verticalAlign=top;align=left;overflow=fill;fontSize=12;fontFamily=Helvetica;html=1;whiteSpace=wrap;fillColor=#dae8fc;strokeColor=#6c8ebf;" vertex="1" parent="WIyWlLk6GJQsqaUBKTNV-1">
          <mxGeometry x="275" y="238" width="110" height="80" as="geometry" />
        </mxCell>
        <mxCell id="QdLIedKiF2Z4h_buhTNF-79" value="&lt;p style=&quot;margin:0px;margin-top:4px;text-align:center;&quot;&gt;&lt;b&gt;ClassDiagram&lt;/b&gt;&lt;/p&gt;&lt;hr size=&quot;1&quot;&gt;&lt;p style=&quot;margin:0px;margin-left:4px;&quot;&gt;&lt;br&gt;&lt;/p&gt;&lt;hr size=&quot;1&quot;&gt;&lt;p style=&quot;margin:0px;margin-left:4px;&quot;&gt;&lt;br&gt;&lt;/p&gt;" style="verticalAlign=top;align=left;overflow=fill;fontSize=12;fontFamily=Helvetica;html=1;whiteSpace=wrap;fillColor=#dae8fc;strokeColor=#6c8ebf;" vertex="1" parent="WIyWlLk6GJQsqaUBKTNV-1">
          <mxGeometry x="275" y="50" width="110" height="80" as="geometry" />
        </mxCell>
        <mxCell id="QdLIedKiF2Z4h_buhTNF-82" value="1..*" style="text;html=1;align=center;verticalAlign=middle;resizable=0;points=[];autosize=1;strokeColor=none;fillColor=none;" vertex="1" parent="WIyWlLk6GJQsqaUBKTNV-1">
          <mxGeometry x="340" y="128" width="40" height="30" as="geometry" />
        </mxCell>
        <mxCell id="QdLIedKiF2Z4h_buhTNF-83" value="1..*" style="text;html=1;align=center;verticalAlign=middle;resizable=0;points=[];autosize=1;strokeColor=none;fillColor=none;" vertex="1" parent="WIyWlLk6GJQsqaUBKTNV-1">
          <mxGeometry x="345" y="208" width="40" height="30" as="geometry" />
        </mxCell>
        <mxCell id="QdLIedKiF2Z4h_buhTNF-84" value="+diagram" style="text;html=1;align=center;verticalAlign=middle;resizable=0;points=[];autosize=1;strokeColor=none;fillColor=none;" vertex="1" parent="WIyWlLk6GJQsqaUBKTNV-1">
          <mxGeometry x="215" y="128" width="70" height="30" as="geometry" />
        </mxCell>
        <mxCell id="QdLIedKiF2Z4h_buhTNF-85" value="+thing" style="text;html=1;align=center;verticalAlign=middle;resizable=0;points=[];autosize=1;strokeColor=none;fillColor=none;" vertex="1" parent="WIyWlLk6GJQsqaUBKTNV-1">
          <mxGeometry x="250" y="190" width="60" height="30" as="geometry" />
        </mxCell>
        <mxCell id="QdLIedKiF2Z4h_buhTNF-86" value="&lt;div style=&quot;&quot;&gt;&lt;b style=&quot;background-color: initial;&quot;&gt;名字&lt;/b&gt;&lt;/div&gt;&lt;div style=&quot;&quot;&gt;關係的名字是&quot;使用&quot;&lt;/div&gt;" style="rounded=0;whiteSpace=wrap;html=1;fillColor=#dae8fc;strokeColor=#6c8ebf;container=0;align=center;" vertex="1" parent="WIyWlLk6GJQsqaUBKTNV-1">
          <mxGeometry x="30" y="70" width="160" height="50" as="geometry" />
        </mxCell>
        <mxCell id="QdLIedKiF2Z4h_buhTNF-87" value="&lt;div style=&quot;&quot;&gt;&lt;b style=&quot;background-color: initial;&quot;&gt;多重性&lt;/b&gt;&lt;/div&gt;&lt;div style=&quot;text-align: left;&quot;&gt;(用數字和*表示)&lt;/div&gt;&lt;div style=&quot;text-align: left;&quot;&gt;1...*:1個或多個&lt;/div&gt;&lt;div style=&quot;text-align: left;&quot;&gt;1個類圖有1或多個類&lt;/div&gt;&lt;div style=&quot;text-align: left;&quot;&gt;1個類屬於!個或多個類圖&lt;/div&gt;" style="rounded=0;whiteSpace=wrap;html=1;fillColor=#dae8fc;strokeColor=#6c8ebf;container=0;align=center;" vertex="1" parent="WIyWlLk6GJQsqaUBKTNV-1">
          <mxGeometry x="460" y="188" width="160" height="80" as="geometry" />
        </mxCell>
        <mxCell id="QdLIedKiF2Z4h_buhTNF-88" value="&lt;div style=&quot;&quot;&gt;&lt;b style=&quot;background-color: initial;&quot;&gt;方向&lt;/b&gt;&lt;/div&gt;&lt;div style=&quot;&quot;&gt;雙向關聯(省略箭頭)&lt;/div&gt;" style="rounded=0;whiteSpace=wrap;html=1;fillColor=#dae8fc;strokeColor=#6c8ebf;container=0;align=center;" vertex="1" parent="WIyWlLk6GJQsqaUBKTNV-1">
          <mxGeometry x="460" y="70" width="160" height="50" as="geometry" />
        </mxCell>
        <mxCell id="QdLIedKiF2Z4h_buhTNF-90" value="" style="endArrow=classic;html=1;rounded=0;" edge="1" parent="WIyWlLk6GJQsqaUBKTNV-1" target="QdLIedKiF2Z4h_buhTNF-85">
          <mxGeometry width="50" height="50" relative="1" as="geometry">
            <mxPoint x="190" y="218" as="sourcePoint" />
            <mxPoint x="240" y="168" as="targetPoint" />
          </mxGeometry>
        </mxCell>
        <mxCell id="QdLIedKiF2Z4h_buhTNF-91" value="" style="endArrow=classic;html=1;rounded=0;" edge="1" parent="WIyWlLk6GJQsqaUBKTNV-1">
          <mxGeometry width="50" height="50" relative="1" as="geometry">
            <mxPoint x="190" y="100" as="sourcePoint" />
            <mxPoint x="320" y="180" as="targetPoint" />
          </mxGeometry>
        </mxCell>
        <mxCell id="QdLIedKiF2Z4h_buhTNF-92" value="" style="endArrow=classic;html=1;rounded=0;entryX=-0.12;entryY=0.367;entryDx=0;entryDy=0;entryPerimeter=0;" edge="1" parent="WIyWlLk6GJQsqaUBKTNV-1" target="QdLIedKiF2Z4h_buhTNF-82">
          <mxGeometry width="50" height="50" relative="1" as="geometry">
            <mxPoint x="460" y="90" as="sourcePoint" />
            <mxPoint x="510" y="40" as="targetPoint" />
          </mxGeometry>
        </mxCell>
        <mxCell id="QdLIedKiF2Z4h_buhTNF-93" value="" style="endArrow=none;html=1;rounded=0;entryX=0.395;entryY=1.003;entryDx=0;entryDy=0;entryPerimeter=0;exitX=0.409;exitY=0.15;exitDx=0;exitDy=0;exitPerimeter=0;" edge="1" parent="WIyWlLk6GJQsqaUBKTNV-1" source="QdLIedKiF2Z4h_buhTNF-41" target="QdLIedKiF2Z4h_buhTNF-79">
          <mxGeometry width="50" height="50" relative="1" as="geometry">
            <mxPoint x="390" y="230" as="sourcePoint" />
            <mxPoint x="440" y="180" as="targetPoint" />
          </mxGeometry>
        </mxCell>
        <mxCell id="QdLIedKiF2Z4h_buhTNF-94" value="use" style="edgeLabel;html=1;align=center;verticalAlign=middle;resizable=0;points=[];" vertex="1" connectable="0" parent="QdLIedKiF2Z4h_buhTNF-93">
          <mxGeometry x="0.0017" y="-2" relative="1" as="geometry">
            <mxPoint as="offset" />
          </mxGeometry>
        </mxCell>
        <mxCell id="QdLIedKiF2Z4h_buhTNF-95" value="" style="endArrow=classic;html=1;rounded=0;entryX=1.015;entryY=0.607;entryDx=0;entryDy=0;entryPerimeter=0;" edge="1" parent="WIyWlLk6GJQsqaUBKTNV-1" target="QdLIedKiF2Z4h_buhTNF-83">
          <mxGeometry width="50" height="50" relative="1" as="geometry">
            <mxPoint x="460" y="230" as="sourcePoint" />
            <mxPoint x="335" y="279" as="targetPoint" />
          </mxGeometry>
        </mxCell>
      </root>
    </mxGraphModel>
  </diagram>
</mxfile>
